HIERARCHY
ROOT Hips
{
    OFFSET 0.000000 0.000000 0.000000
    CHANNELS 6 Xposition Yposition Zposition Zrotation Xrotation Yrotation
    JOINT Spine
    {
        OFFSET -0.000000 7.246840 0.000000
        CHANNELS 3 Zrotation Xrotation Yrotation
        JOINT Spine1
        {
            OFFSET -0.000000 20.289354 0.000000
            CHANNELS 3 Zrotation Xrotation Yrotation
            JOINT Neck
            {
                OFFSET -0.000000 20.206032 1.836912
                CHANNELS 3 Zrotation Xrotation Yrotation
                JOINT Head
                {
                    OFFSET -0.000000 12.372654 -1.767522
                    CHANNELS 3 Zrotation Xrotation Yrotation
                    End Site
                    {
                        OFFSET -0.000000 22.094025 0.000000
                    }
                }
            }
            JOINT LeftShoulder
            {
                OFFSET 3.465871 17.201674 -0.568930
                CHANNELS 3 Zrotation Xrotation Yrotation
                JOINT LeftArm
                {
                    OFFSET 14.070313 0.000000 0.000000
                    CHANNELS 3 Zrotation Xrotation Yrotation
                    JOINT LeftForeArm
                    {
                        OFFSET 26.549477 0.000000 0.000000
                        CHANNELS 3 Zrotation Xrotation Yrotation
                        JOINT LeftHand
                        {
                            OFFSET 18.880413 0.000000 0.000000
                            CHANNELS 3 Zrotation Xrotation Yrotation
                            End Site
                            {
                                OFFSET 13.256415 0.000000 0.000000
                            }
                        }
                    }
                }
            }
            JOINT RightShoulder
            {
                OFFSET -3.526370 17.201674 -0.568930
                CHANNELS 3 Zrotation Xrotation Yrotation
                JOINT RightArm
                {
                    OFFSET -14.070313 0.000000 0.000000
                    CHANNELS 3 Zrotation Xrotation Yrotation
                    JOINT RightForeArm
                    {
                        OFFSET -26.549477 0.000000 0.000000
                        CHANNELS 3 Zrotation Xrotation Yrotation
                        JOINT RightHand
                        {
                            OFFSET -18.880413 0.000000 0.000000
                            CHANNELS 3 Zrotation Xrotation Yrotation
                            End Site
                            {
                                OFFSET -13.256415 0.000000 0.000000
                            }
                        }
                    }
                }
            }
        }
    }
    JOINT LeftUpLeg
    {
        OFFSET 8.837609 0.000000 0.000000
        CHANNELS 3 Zrotation Xrotation Yrotation
        JOINT LeftLeg
        {
            OFFSET -0.000000 -41.345005 0.000000
            CHANNELS 3 Zrotation Xrotation Yrotation
            JOINT LeftFoot
            {
                OFFSET -0.000000 -35.500874 0.000000
                CHANNELS 3 Zrotation Xrotation Yrotation
                JOINT LeftToeBase
                {
                    OFFSET -0.000000 -5.744446 13.256415
                    CHANNELS 3 Zrotation Xrotation Yrotation
                    End Site
                    {
                        OFFSET -0.000000 0.000000 3.535044
                    }
                }
            }
        }
    }
    JOINT RightUpLeg
    {
        OFFSET -8.837609 0.000000 0.000000
        CHANNELS 3 Zrotation Xrotation Yrotation
        JOINT RightLeg
        {
            OFFSET -0.000000 -41.345005 0.000000
            CHANNELS 3 Zrotation Xrotation Yrotation
            JOINT RightFoot
            {
                OFFSET -0.000000 -35.500874 0.000000
                CHANNELS 3 Zrotation Xrotation Yrotation
                JOINT RightToeBase
                {
                    OFFSET -0.000000 -5.744446 13.256415
                    CHANNELS 3 Zrotation Xrotation Yrotation
                    End Site
                    {
                        OFFSET -0.000000 0.000000 3.535044
                    }
                }
            }
        }
    }
}
MOTION
Frames:    10
Frame Time:    0.010000
-1.102990    82.737572    22.128916    3.623454    7.937532    -0.650951    -4.663915    -9.128811    2.711784    3.130765    8.813394    2.843027    -1.096999    23.262934    -9.516479    4.954902    -29.725571    -8.022022    12.443257    5.842301    10.079475    -28.063017    84.058678    -29.029526    13.337089    1.726919    -90.142319    33.570812    1.432656    -43.304260    -6.727419    -3.362805    12.863129    47.168476    33.683411    24.343523    -37.225758    -32.931747    82.553574    -9.037476    -0.586933    7.549086    1.271565    1.053330    2.854266    -0.568973    -12.853102    2.524574    -4.945270    7.496413    -6.252066    0.216317    -1.022148    -0.304703    -12.789528    -1.276433    -6.707076    4.484957    0.294225    0.364314    9.252730    -5.074407    -6.596213    -0.937308    -1.198132    1.702944    
-1.082719    82.765068    22.210541    3.637034    7.873388    -0.752587    -4.961900    -9.289691    2.551703    3.432745    8.792129    2.691139    -1.112250    23.392908    -9.380733    5.091076    -29.390104    -7.844481    12.420859    5.839211    9.997374    -29.619036    84.210701    -27.519960    13.229191    1.701267    -90.234512    33.473747    1.370589    -43.274937    -6.661010    -2.494822    12.454225    47.250565    34.876667    23.318232    -36.138374    -32.826397    83.384628    -9.942678    -1.268062    8.866887    1.243506    1.187536    3.217855    -0.621412    -12.858164    2.392436    -5.230700    7.452271    -6.420599    0.153926    -0.853863    -0.216598    -12.792629    -1.255859    -6.739661    4.453028    0.404113    0.323544    9.324264    -4.996420    -6.471122    -0.940961    -1.274003    1.711015    
-1.063030    82.784805    22.290972    3.636004    7.789869    -0.869888    -5.214705    -9.475616    2.419518    3.670903    8.872052    2.567160    -0.991475    23.505257    -9.253428    5.107598    -29.144720    -7.709116    12.491156    5.705031    9.820956    -32.995621    84.308289    -24.258022    13.141739    1.765025    -90.287079    33.353176    1.413443    -43.263439    -6.600654    -1.651756    12.017580    47.452213    35.394962    22.231176    -34.437103    -32.062889    84.852493    -11.277311    -1.514460    10.152992    1.239376    1.358770    3.445083    -0.657648    -12.888778    2.352180    -5.291181    7.438209    -6.509019    0.160642    -0.876197    -0.226080    -12.771185    -1.206165    -6.771127    4.406064    0.484087    0.271410    9.354783    -4.900022    -6.326360    -0.946257    -1.342661    1.721953    
-1.046805    82.795715    22.364975    3.615065    7.696441    -0.996135    -5.450726    -9.628227    2.297632    3.935016    8.941198    2.449286    -0.943353    23.688175    -9.081300    5.194380    -29.091009    -7.497082    12.529086    5.761776    9.782471    -33.048851    84.363029    -24.330339    13.204539    1.624076    -90.123703    33.109825    1.265740    -43.663311    -6.609115    -0.991533    11.618942    47.562782    36.777527    21.284260    -34.174404    -32.000042    84.970612    -12.248199    -1.867821    11.328330    1.252050    1.543076    3.620932    -0.676090    -12.927742    2.301756    -5.323931    7.404718    -6.524525    0.184584    -0.906063    -0.259821    -12.726251    -1.141108    -6.800848    4.366764    0.531616    0.261889    9.369616    -4.831440    -6.219691    -0.974186    -1.382688    1.773559    
-1.021569    82.792686    22.442207    3.560701    7.585447    -1.139962    -5.559074    -9.730237    2.161647    4.096324    8.996548    2.312795    -0.935561    23.687706    -8.905596    5.260549    -28.772812    -7.302417    12.574322    5.768738    9.898261    -32.395737    84.496651    -25.111267    13.114672    2.123369    -90.868492    34.384365    2.462591    -40.383453    -6.641411    -0.488393    11.232809    47.896957    37.885696    20.236610    -33.697556    -31.714718    85.453232    -12.958226    -1.931606    12.227509    1.288848    1.761459    3.680248    -0.673403    -12.980891    2.332612    -5.322223    7.345329    -6.489739    0.175610    -0.911583    -0.247198    -12.660185    -1.041180    -6.835362    4.337588    0.548085    0.265444    9.356380    -4.777338    -6.089553    -0.962918    -1.397912    1.753343    
-0.994336    82.786491    22.513489    3.536253    7.455021    -1.290330    -5.654663    -9.855195    2.036075    4.202850    9.132221    2.188193    -0.896322    23.707310    -8.747740    5.294816    -28.533268    -7.133183    12.632778    5.755504    9.968808    -31.961887    84.603035    -25.641766    13.083809    2.091033    -90.852257    34.418945    2.430979    -40.240578    -6.705247    -0.184284    10.909812    48.186256    39.571060    19.082874    -34.162113    -31.934868    85.270325    -13.412279    -1.884248    12.567007    1.292761    1.994262    3.580053    -0.627430    -13.021727    2.378188    -5.320403    7.250908    -6.316000    0.166482    -0.937087    -0.234384    -12.634686    -0.910932    -6.847019    4.331999    0.529165    0.238540    9.343110    -4.745414    -5.924364    -0.961205    -1.383690    1.749948    
-0.982727    82.759872    22.578297    3.464893    7.377752    -1.503988    -5.760991    -10.022762    1.935669    4.410026    9.246695    2.084489    -0.929353    23.701777    -8.566111    5.406534    -28.249235    -6.916902    12.656482    5.755309    10.094472    -30.979589    84.678101    -26.749273    13.051213    2.104226    -90.815964    34.496380    2.424895    -40.087147    -6.806405    0.183021    10.548579    48.921261    40.578804    17.920485    -34.470993    -32.044144    85.234734    -12.962400    -1.723732    13.238235    1.373897    2.175989    3.534758    -0.634339    -13.057746    2.432475    -5.249663    7.147507    -6.141758    0.132601    -0.951995    -0.186702    -12.548705    -0.852203    -6.789887    4.313049    0.560724    0.809817    9.249977    -4.893498    -6.346060    -0.960100    -1.360985    1.747497    
-0.962692    82.737076    22.609035    3.449934    7.305323    -1.584448    -5.966853    -10.062130    1.806188    4.700300    9.277332    1.950370    -1.079173    23.542713    -8.425174    5.636656    -27.843357    -6.711379    12.623631    5.668958    10.215948    -29.712103    84.750732    -28.108974    13.039471    2.132001    -90.762276    34.539310    2.419523    -40.061775    -7.021508    0.580032    9.996013    49.793316    41.492989    16.879175    -34.824780    -32.468815    85.157616    -11.635687    -1.791719    13.839905    1.375395    2.267179    3.298903    -0.582890    -13.007311    2.525058    -5.141597    7.021811    -5.966349    0.100257    -0.957749    -0.141167    -12.532501    -0.775741    -6.879995    4.291075    0.485223    0.339007    9.297967    -4.788305    -5.707762    -0.944054    -1.309500    1.717314    
-0.946779    82.692406    22.657104    3.391153    7.271921    -1.814039    -6.002077    -10.270617    1.690194    4.887883    9.439975    1.826296    -1.542916    23.513145    -8.179309    6.264693    -27.542448    -6.267022    12.449351    5.712146    10.432106    -27.760990    84.742111    -30.000145    13.025240    2.085019    -90.730721    34.624653    2.270874    -40.187344    -7.263540    1.090454    9.734694    51.266006    41.209644    15.456172    -33.863003    -32.600586    86.307831    -9.394258    -2.080597    14.590868    1.426955    2.384597    3.209903    -0.547412    -13.015469    2.558696    -5.077204    6.885465    -5.703637    0.081537    -0.970097    -0.114817    -12.477633    -0.765629    -6.757049    4.277933    0.454313    0.350700    9.310171    -4.865768    -5.596912    -0.925838    -1.254513    1.683156    
-0.915977    82.649040    22.694664    3.380926    7.234969    -1.982515    -6.001085    -10.375861    1.629542    4.880025    9.517156    1.768466    -1.701991    23.424252    -8.037996    6.680379    -27.274220    -5.989141    12.444305    5.765845    10.585333    -26.221375    84.586655    -31.572523    13.171812    2.148964    -90.619934    34.216824    2.654383    -40.108082    -7.359380    1.706241    9.221072    52.451530    41.973526    14.385910    -33.744316    -34.025597    86.492340    -6.431251    -3.437436    14.881152    1.407283    2.472222    3.050094    -0.485792    -12.984073    2.670691    -4.978652    6.710588    -5.537488    0.042537    -0.933815    -0.059886    -12.493019    -0.742279    -6.693891    4.272148    0.447423    0.418631    9.317283    -4.994709    -5.537775    -0.927379    -1.187610    1.684709    
